<svg xmlns="http://www.w3.org/2000/svg" version="1.1" xmlns:xlink="http://www.w3.org/1999/xlink" xmlns:svgjs="http://svgjs.dev/svgjs" width="2000" height="2000" viewBox="0 0 2000 2000"><g transform="matrix(1,0,0,1,0,0)"><svg viewBox="0 0 280 280" data-background-color="#ffffff" preserveAspectRatio="xMidYMid meet" height="2000" width="2000" xmlns="http://www.w3.org/2000/svg" xmlns:xlink="http://www.w3.org/1999/xlink"><g id="tight-bounds" transform="matrix(1,0,0,1,0,0)"><svg viewBox="0 0 280 280" height="280" width="280"><g><svg viewBox="0 0 280 280" height="280" width="280"><g><svg viewBox="0 0 280 280" height="280" width="280"><g id="textblocktransform"><svg viewBox="0 0 280 280" height="280" width="280" id="textblock"><g><svg viewBox="0 0 280 280" height="280" width="280"><g transform="matrix(1,0,0,1,90.50252531694167,107.52724408612352)"><svg viewBox="0 0 98.99494936611666 64.94551182775297" height="64.94551182775297" width="98.99494936611666"><g id="icon-0"><svg xmlns="http://www.w3.org/2000/svg" xmlns:xlink="http://www.w3.org/1999/xlink" version="1.1" x="0" y="0" viewBox="12.980245148447072 25.713 74.04175485155294 48.574999999999996" enable-background="new 0 0 100 100" xml:space="preserve" height="64.94551182775297" width="98.99494936611666" class="icon-jxe-0" data-fill-palette-color="accent" id="jxe-0"><path d="M87.021 30.091A1 1 0 0 0 86.021 29.091H44.194L41.56 26.299C41.291 26.014 41.042 25.713 40.65 25.713H24.271A1 1 0 0 0 23.271 26.713V32.168H21.195A1 1 0 0 0 20.198 33.244L20.313 34.744H18.619A1 1 0 0 0 17.631 35.893L17.807 37.064H16.299A1 1 0 0 0 15.325 38.285L15.573 39.384H13.98A1 1 0 0 0 13.026 40.683L23.317 73.587C23.448 74.004 23.835 74.288 24.272 74.288H86.022C86.653 74.288 87.022 73.882 87.022 73.288zM24.271 26.713H40.433L43.55 30.091H86.021V60.21L83.941 33.092A1 1 0 0 0 82.944 32.168H24.271zM21.195 33.168H82.944L84.972 59.611 81.357 35.595A1 1 0 0 0 80.368 34.743H21.316zM18.619 35.744H80.368L83.986 59.768 79.023 37.842A1 1 0 0 0 78.048 37.063H18.818zM16.299 38.063H78.049L83.276 61.158 76.684 40.084A1 1 0 0 0 75.73 39.383H16.598zM24.271 73.287L13.979 40.383H75.729L86.021 73.287z" fill="#000000" data-fill-palette-color="accent"></path></svg></g></svg></g><g id="text-0"><path d="M11.008 82.181l6.226 2.277-0.841 2.3-3.857-0.786c-0.477-0.068-0.778 0.069-0.903 0.412v0l-2.041 5.58 21.583 7.895c0.187 0.068 0.396 0.067 0.627-0.004 0.222-0.067 0.397-0.236 0.524-0.508v0l1.072-2.437 1.673 0.612-3.867 10.572-1.673-0.612 0.754-2.554c0.078-0.29 0.053-0.532-0.073-0.727-0.133-0.197-0.293-0.33-0.48-0.398v0l-21.583-7.894-2.055 5.617c-0.139 0.38 0.001 0.682 0.421 0.907v0l3.46 1.869-0.831 2.272-6.225-2.277z" fill="#000000" data-fill-palette-color="primary"></path><path d="M45.726 54.957v0c1.631 1.186 2.969 2.557 4.013 4.111 1.044 1.555 1.755 3.205 2.135 4.95 0.382 1.754 0.39 3.525 0.027 5.311-0.368 1.792-1.149 3.509-2.343 5.151v0c-1.596 2.195-3.508 3.741-5.737 4.64-2.234 0.894-4.575 1.153-7.024 0.774-2.449-0.378-4.8-1.386-7.054-3.025v0c-1.642-1.194-2.989-2.563-4.04-4.107-1.051-1.544-1.767-3.188-2.148-4.934-0.385-1.749-0.392-3.517-0.018-5.305 0.373-1.788 1.167-3.516 2.38-5.186v0c1.21-1.664 2.61-2.946 4.202-3.848 1.587-0.897 3.277-1.432 5.068-1.606 1.788-0.168 3.582 0.004 5.383 0.518 1.806 0.518 3.525 1.369 5.156 2.556zM42.931 58.868v0c-1.825-1.327-3.679-2.274-5.564-2.84-1.89-0.571-3.664-0.659-5.321-0.264-1.653 0.389-3.05 1.368-4.19 2.934v0c-1.175 1.615-1.696 3.279-1.562 4.993 0.133 1.713 0.765 3.37 1.896 4.973 1.123 1.604 2.575 3.054 4.357 4.349v0c1.792 1.303 3.633 2.248 5.52 2.833 1.889 0.595 3.671 0.7 5.344 0.317 1.673-0.383 3.086-1.366 4.237-2.949v0c1.179-1.621 1.692-3.286 1.541-4.996-0.147-1.715-0.786-3.381-1.915-4.998-1.124-1.613-2.572-3.064-4.343-4.352z" fill="#000000" data-fill-palette-color="primary"></path><path d="M84.698 39.735l1.05 1.44-8.495 6.19-1.049-1.44 1.823-1.538c0.215-0.189 0.327-0.402 0.335-0.638 0.01-0.245-0.044-0.449-0.161-0.61v0l-6.319-8.671-11.052 8.054 6.319 8.672c0.117 0.161 0.289 0.278 0.515 0.351 0.227 0.064 0.47 0.019 0.727-0.135v0l2.014-1.259 1.049 1.44-8.494 6.19-1.05-1.44 1.646-1.408c0.22-0.193 0.34-0.412 0.36-0.656 0.01-0.245-0.044-0.449-0.161-0.61v0l-13.049-17.905c-0.117-0.161-0.292-0.271-0.525-0.332-0.234-0.051-0.473 0.004-0.716 0.165v0l-1.846 1.136-1.072-1.472 8.494-6.19 1.073 1.472-1.815 1.531c-0.234 0.187-0.356 0.395-0.369 0.626-0.003 0.232 0.054 0.429 0.171 0.59v0l5.51 7.561 11.052-8.054-5.51-7.561c-0.117-0.161-0.292-0.271-0.525-0.332-0.223-0.059-0.454-0.01-0.693 0.148v0l-2.022 1.264-1.073-1.472 8.495-6.19 1.072 1.472-1.637 1.403c-0.234 0.187-0.359 0.397-0.377 0.632-0.019 0.244 0.03 0.446 0.147 0.607v0l13.048 17.906c0.117 0.161 0.297 0.272 0.539 0.334 0.233 0.06 0.478 0.013 0.734-0.142v0z" fill="#000000" data-fill-palette-color="primary"></path><path d="M102.25 4.867l2.26 6.189-2.309 0.843-1.859-3.379c-0.106-0.173-0.244-0.31-0.415-0.41-0.162-0.096-0.331-0.112-0.505-0.049v0l-8.312 3.035 3.708 10.153 5.964-2.178c0.175-0.064 0.302-0.209 0.382-0.436 0.076-0.218 0.097-0.392 0.064-0.521v0l-0.639-2.882 1.944-0.71 3.209 8.789-1.945 0.71-1.361-2.597c-0.063-0.133-0.196-0.257-0.401-0.373-0.209-0.107-0.394-0.132-0.556-0.072v0l-5.965 2.178 3.478 9.526c0.068 0.187 0.204 0.346 0.408 0.477 0.195 0.127 0.437 0.151 0.726 0.074v0l2.666-0.794 0.611 1.674-10.247 3.741-0.611-1.673 1.999-0.91c0.265-0.125 0.434-0.3 0.508-0.525 0.065-0.229 0.063-0.436-0.005-0.623v0l-7.599-20.812c-0.068-0.187-0.202-0.35-0.401-0.489-0.203-0.131-0.444-0.152-0.723-0.064v0l-2.442 0.711-0.611-1.673z" fill="#000000" data-fill-palette-color="primary"></path><path d="M145.94 25.742l0.134 1.777-9.855 0.747-0.135-1.777 2.376-0.39c0.106-0.008 0.2-0.085 0.282-0.231 0.088-0.153 0.128-0.289 0.119-0.408v0c-0.004-0.053-0.013-0.086-0.027-0.098v0l-3.433-7.365-9.567 0.725-2.184 7.672c-0.011 0.027-0.015 0.068-0.011 0.12v0c0.012 0.159 0.097 0.312 0.255 0.46 0.15 0.142 0.285 0.208 0.404 0.199v0l2.467 0.023 0.135 1.776-8.337 0.632-0.134-1.777 2.373-0.689 7.663-26.902 3.116-0.236 11.545 24.838c0.127 0.27 0.234 0.451 0.321 0.544 0.086 0.087 0.287 0.145 0.602 0.174v0zM126.418 16.681l8.088-0.613-4.892-10.549z" fill="#000000" data-fill-palette-color="primary"></path><path d="M177.815 4.465l-1.202 6.478-2.417-0.448 0.118-3.855c-0.003-0.203-0.052-0.391-0.149-0.564-0.091-0.165-0.228-0.265-0.41-0.299v0l-8.699-1.615-1.973 10.627 6.244 1.159c0.183 0.034 0.366-0.027 0.549-0.181 0.176-0.149 0.283-0.288 0.321-0.416v0l0.915-2.807 2.036 0.378-1.708 9.199-2.035-0.378 0.149-2.928c0.014-0.146-0.038-0.321-0.156-0.525-0.125-0.199-0.272-0.314-0.442-0.345v0l-6.243-1.159-1.851 9.972c-0.036 0.196 0 0.402 0.108 0.617 0.103 0.208 0.299 0.352 0.588 0.433v0l2.699 0.673-0.325 1.752-10.725-1.991 0.325-1.752 2.183 0.234c0.292 0.027 0.527-0.037 0.704-0.194 0.172-0.164 0.276-0.344 0.313-0.539v0l4.043-21.783c0.036-0.196 0.004-0.404-0.096-0.626-0.108-0.216-0.305-0.357-0.59-0.423v0l-2.464-0.629 0.325-1.752z" fill="#000000" data-fill-palette-color="primary"></path><path d="M211.05 34.152v0c-0.889 1.811-2.009 3.364-3.362 4.659-1.352 1.295-2.856 2.28-4.509 2.953-1.663 0.677-3.405 0.99-5.228 0.938-1.828-0.055-3.654-0.529-5.476-1.423v0c-2.436-1.196-4.288-2.814-5.556-4.855-1.265-2.047-1.921-4.309-1.969-6.787-0.048-2.478 0.542-4.967 1.769-7.469v0c0.894-1.823 2.012-3.385 3.353-4.686 1.341-1.301 2.838-2.288 4.492-2.962 1.657-0.68 3.398-0.99 5.223-0.929 1.825 0.061 3.664 0.545 5.517 1.454v0c1.847 0.906 3.351 2.066 4.513 3.479 1.156 1.41 1.973 2.982 2.452 4.718 0.473 1.732 0.611 3.53 0.414 5.392-0.2 1.868-0.744 3.708-1.633 5.518zM206.717 32.07v0c0.994-2.025 1.608-4.015 1.843-5.97 0.238-1.96 0.02-3.723-0.654-5.287-0.667-1.562-1.871-2.77-3.61-3.624v0c-1.793-0.88-3.522-1.107-5.186-0.682-1.665 0.425-3.189 1.332-4.574 2.723-1.387 1.381-2.566 3.061-3.537 5.038v0c-0.976 1.99-1.591 3.965-1.843 5.925-0.261 1.963-0.06 3.737 0.605 5.319 0.665 1.583 1.876 2.805 3.633 3.668v0c1.799 0.883 3.528 1.103 5.186 0.66 1.664-0.44 3.196-1.355 4.596-2.745 1.396-1.384 2.577-3.059 3.541-5.025z" fill="#000000" data-fill-palette-color="primary"></path><path d="M231.492 59.494l-5.186 5.723-14.973-13.566 1.197-1.32 1.906 1.498c0.234 0.176 0.468 0.245 0.7 0.205 0.232-0.049 0.416-0.147 0.549-0.295v0l14.877-16.418c0.134-0.148 0.216-0.342 0.246-0.582 0.021-0.241-0.072-0.464-0.28-0.67v0l-1.678-1.75 1.196-1.32 7.862 7.124-1.196 1.321-1.751-1.359c-0.23-0.191-0.469-0.268-0.716-0.232-0.247 0.045-0.437 0.141-0.571 0.289v0l-15.431 17.03 6.461 5.854c0.143 0.129 0.337 0.207 0.582 0.232 0.255 0.025 0.445-0.022 0.571-0.141v0l3.843-3.247z" fill="#000000" data-fill-palette-color="primary"></path><path d="M239.394 79.461l-1.44 1.05-6.449-8.847 1.439-1.05 1.591 1.895c0.197 0.226 0.412 0.34 0.644 0.343 0.241 0.005 0.443-0.052 0.604-0.169v0l17.903-13.052c0.161-0.117 0.273-0.29 0.337-0.517 0.063-0.218 0.011-0.452-0.154-0.701v0l-1.317-2.094 1.472-1.073 6.45 8.847-1.472 1.073-1.632-1.951c-0.179-0.223-0.384-0.34-0.615-0.353-0.236-0.009-0.435 0.046-0.595 0.163v0l-17.903 13.052c-0.161 0.117-0.276 0.292-0.345 0.523-0.064 0.227-0.023 0.464 0.124 0.711v0z" fill="#000000" data-fill-palette-color="primary"></path><path d="M265.459 107.995v0c-1.865 0.768-3.733 1.19-5.604 1.265-1.871 0.075-3.649-0.183-5.335-0.774-1.694-0.594-3.207-1.514-4.538-2.759-1.334-1.252-2.387-2.816-3.161-4.694v0c-1.034-2.509-1.349-4.948-0.947-7.317 0.408-2.371 1.415-4.501 3.019-6.389 1.605-1.888 3.695-3.363 6.272-4.425v0c1.877-0.773 3.749-1.203 5.615-1.29 1.866-0.087 3.642 0.165 5.327 0.755 1.692 0.588 3.201 1.509 4.529 2.763 1.328 1.254 2.384 2.836 3.171 4.744v0c0.783 1.902 1.143 3.767 1.077 5.595-0.068 1.822-0.497 3.542-1.287 5.159-0.793 1.611-1.88 3.049-3.26 4.314-1.387 1.267-3.013 2.285-4.878 3.053zM263.591 103.566v0c2.086-0.859 3.864-1.943 5.334-3.253 1.476-1.311 2.48-2.776 3.012-4.394 0.534-1.612 0.432-3.314-0.305-5.106v0c-0.761-1.847-1.905-3.162-3.434-3.946-1.529-0.784-3.272-1.114-5.23-0.989-1.954 0.116-3.95 0.594-5.987 1.433v0c-2.049 0.844-3.817 1.917-5.305 3.218-1.496 1.298-2.519 2.76-3.069 4.386-0.55 1.626-0.452 3.344 0.293 5.154v0c0.763 1.853 1.913 3.163 3.448 3.93 1.538 0.773 3.292 1.102 5.261 0.986 1.963-0.113 3.957-0.586 5.982-1.419z" fill="#000000" data-fill-palette-color="primary"></path><path d="M45.19 193.223l-6.37 2.346-0.866-2.354 3.526-1.945c0.422-0.255 0.568-0.559 0.437-0.914v0l-2.102-5.707-22.079 8.132c-0.193 0.071-0.355 0.208-0.484 0.412-0.136 0.206-0.164 0.456-0.084 0.752v0l0.79 2.605-1.719 0.632-3.983-10.815 1.718-0.633 1.089 2.495c0.13 0.277 0.314 0.45 0.551 0.518 0.231 0.07 0.443 0.07 0.636-0.001v0l22.079-8.132-2.115-5.744c-0.144-0.392-0.455-0.536-0.933-0.43v0l-3.939 0.825-0.853-2.317 6.37-2.346z" fill="#000000" data-fill-palette-color="primary"></path><path d="M52.518 228.177v0c-1.661 1.213-3.414 2.086-5.26 2.62-1.844 0.524-3.678 0.701-5.503 0.53-1.824-0.18-3.55-0.727-5.179-1.641-1.633-0.919-3.061-2.218-4.286-3.895v0c-1.639-2.245-2.546-4.595-2.718-7.048-0.171-2.463 0.312-4.828 1.449-7.097 1.137-2.268 2.858-4.243 5.162-5.926v0c1.677-1.225 3.432-2.107 5.264-2.648 1.832-0.541 3.662-0.723 5.492-0.546 1.82 0.175 3.544 0.724 5.17 1.647 1.627 0.923 3.065 2.24 4.313 3.949v0c1.24 1.699 2.05 3.466 2.429 5.301 0.375 1.83 0.367 3.643-0.022 5.439-0.399 1.795-1.131 3.492-2.198 5.092-1.076 1.599-2.447 3.006-4.113 4.223zM49.58 224.221v0c1.87-1.366 3.379-2.878 4.526-4.536 1.147-1.659 1.789-3.356 1.927-5.092 0.134-1.741-0.382-3.41-1.549-5.006v0c-1.209-1.656-2.668-2.686-4.375-3.091-1.717-0.406-3.532-0.313-5.443 0.277-1.916 0.594-3.785 1.556-5.607 2.886v0c-1.838 1.342-3.34 2.841-4.505 4.497-1.165 1.656-1.823 3.36-1.973 5.113-0.154 1.747 0.362 3.433 1.548 5.057v0c1.205 1.651 2.667 2.674 4.386 3.07 1.715 0.391 3.535 0.29 5.46-0.302 1.925-0.592 3.794-1.55 5.605-2.873z" fill="#000000" data-fill-palette-color="primary"></path><path d="M75.497 261.398l-1.075 1.483-8.71-6.316 1.075-1.483 2.06 1.297c0.252 0.15 0.498 0.189 0.738 0.118 0.237-0.066 0.415-0.183 0.536-0.349v0l6.45-8.896-11.329-8.215-6.45 8.896c-0.121 0.167-0.179 0.371-0.173 0.612 0.001 0.247 0.115 0.469 0.341 0.665v0l1.88 1.561-1.075 1.482-8.71-6.316 1.075-1.482 1.874 1.162c0.263 0.158 0.517 0.203 0.763 0.135 0.242-0.062 0.423-0.177 0.544-0.343v0l13.316-18.364c0.121-0.167 0.171-0.372 0.151-0.615-0.02-0.244-0.147-0.463-0.383-0.659v0l-1.687-1.42 1.098-1.515 8.71 6.316-1.098 1.515-2.068-1.303c-0.253-0.159-0.494-0.206-0.721-0.141-0.227 0.065-0.401 0.18-0.522 0.346v0l-5.62 7.752 11.329 8.215 5.621-7.752c0.121-0.167 0.174-0.37 0.159-0.61-0.014-0.24-0.134-0.454-0.359-0.641v0l-1.872-1.554 1.098-1.515 8.71 6.316-1.098 1.515-1.874-1.163c-0.259-0.163-0.507-0.216-0.745-0.159-0.238 0.057-0.417 0.169-0.539 0.335v0l-13.315 18.364c-0.121 0.167-0.173 0.374-0.157 0.623 0.012 0.255 0.134 0.482 0.365 0.683v0z" fill="#000000" data-fill-palette-color="primary"></path><path d="M115.124 248.643l-2.301 6.343-2.368-0.858 0.769-3.872c0.026-0.209 0.01-0.406-0.05-0.59-0.066-0.186-0.19-0.312-0.371-0.378v0l-8.515-3.088-3.774 10.404 6.11 2.216c0.181 0.066 0.375 0.037 0.582-0.085 0.209-0.129 0.342-0.253 0.4-0.374v0l1.396-2.68 1.993 0.723-3.265 9.001-1.993-0.723 0.637-2.924c0.04-0.148 0.015-0.333-0.073-0.556-0.086-0.229-0.214-0.374-0.383-0.435v0l-6.109-2.216-3.544 9.768c-0.07 0.193-0.069 0.405 0.003 0.636 0.069 0.237 0.243 0.42 0.521 0.549v0l2.612 1.117-0.625 1.721-10.498-3.807 0.625-1.722 2.159 0.614c0.296 0.079 0.547 0.05 0.752-0.088 0.203-0.131 0.339-0.293 0.409-0.486v0l7.735-21.324c0.07-0.193 0.071-0.408 0.001-0.645-0.067-0.243-0.242-0.423-0.524-0.54v0l-2.388-1.035 0.624-1.722z" fill="#000000" data-fill-palette-color="primary"></path><path d="M145.247 278.174l-0.135 1.826-10.095-0.748 0.135-1.827 2.467-0.016c0.106 0.008 0.214-0.057 0.324-0.196 0.11-0.138 0.17-0.27 0.179-0.396v0c0.004-0.053 0-0.09-0.012-0.11v0l-2.353-7.979-9.797-0.727-3.375 7.435c-0.022 0.025-0.035 0.064-0.039 0.117v0c-0.013 0.172 0.048 0.343 0.182 0.512 0.134 0.17 0.264 0.259 0.389 0.269v0l2.497 0.384-0.136 1.827-8.536-0.633 0.135-1.826 2.5-0.334 11.863-26.068 3.196 0.237 7.896 26.914c0.091 0.293 0.173 0.492 0.245 0.597 0.079 0.106 0.275 0.197 0.588 0.273v0zM126.855 266.032l8.288 0.614-3.334-11.435z" fill="#000000" data-fill-palette-color="primary"></path><path d="M171.57 247.236l1.237 6.634-2.475 0.462-1.303-3.726c-0.083-0.194-0.198-0.355-0.343-0.483-0.152-0.127-0.322-0.173-0.511-0.137v0l-8.904 1.661 2.03 10.88 6.389-1.192c0.189-0.035 0.342-0.158 0.457-0.369 0.115-0.217 0.166-0.392 0.156-0.525v0l-0.158-3.018 2.084-0.389 1.756 9.413-2.085 0.388-0.935-2.842c-0.041-0.148-0.156-0.295-0.346-0.442-0.191-0.153-0.374-0.214-0.55-0.181v0l-6.389 1.192 1.906 10.215c0.038 0.202 0.146 0.385 0.325 0.547 0.18 0.169 0.422 0.238 0.727 0.208v0l2.818-0.363 0.336 1.8-10.978 2.048-0.336-1.8 2.172-0.568c0.295-0.082 0.496-0.234 0.603-0.456 0.108-0.216 0.143-0.425 0.106-0.628v0l-4.16-22.298c-0.038-0.202-0.147-0.388-0.326-0.557-0.181-0.175-0.423-0.242-0.726-0.198v0l-2.583 0.319-0.336-1.8z" fill="#000000" data-fill-palette-color="primary"></path><path d="M207.926 245.872v0c0.907 1.846 1.464 3.724 1.669 5.634 0.197 1.907 0.054 3.744-0.43 5.512-0.493 1.765-1.331 3.371-2.513 4.816-1.188 1.449-2.714 2.631-4.579 3.547v0c-2.495 1.226-4.966 1.712-7.412 1.457-2.455-0.258-4.701-1.143-6.739-2.656-2.037-1.513-3.684-3.55-4.942-6.111v0c-0.916-1.864-1.481-3.745-1.697-5.642-0.215-1.898-0.078-3.732 0.413-5.504 0.487-1.762 1.326-3.365 2.517-4.807 1.191-1.443 2.737-2.631 4.637-3.564v0c1.888-0.927 3.768-1.419 5.641-1.474 1.867-0.052 3.651 0.269 5.353 0.963 1.698 0.703 3.243 1.719 4.634 3.047 1.388 1.336 2.537 2.93 3.448 4.782zM203.521 248.08v0c-1.021-2.078-2.249-3.826-3.684-5.243-1.435-1.417-2.996-2.343-4.681-2.779-1.691-0.433-3.424-0.214-5.199 0.658v0c-1.84 0.904-3.107 2.162-3.802 3.775-0.697 1.621-0.92 3.424-0.67 5.408 0.253 1.99 0.877 3.997 1.872 6.022v0c1.004 2.043 2.22 3.781 3.649 5.216 1.429 1.434 2.994 2.377 4.694 2.828 1.694 0.454 3.444 0.238 5.248-0.648v0c1.834-0.901 3.095-2.164 3.784-3.789 0.682-1.621 0.898-3.432 0.648-5.43-0.25-1.999-0.87-4.005-1.859-6.018z" fill="#000000" data-fill-palette-color="primary"></path><path d="M234.793 231.06l5.314 5.863-15.325 13.889-1.23-1.357 1.722-1.775c0.208-0.225 0.3-0.46 0.274-0.706-0.021-0.241-0.101-0.437-0.238-0.589v0l-15.233-16.807c-0.138-0.152-0.328-0.253-0.57-0.303-0.246-0.054-0.487 0.016-0.722 0.211v0l-1.936 1.54-1.23-1.357 8.046-7.292 1.23 1.357-1.567 1.635c-0.217 0.215-0.316 0.452-0.296 0.711 0.016 0.254 0.093 0.458 0.231 0.61v0l15.801 17.434 6.615-5.995c0.143-0.129 0.239-0.319 0.289-0.571 0.055-0.256 0.027-0.454-0.084-0.596v0l-2.92-4.244z" fill="#000000" data-fill-palette-color="primary"></path><path d="M252.796 217.76l1.478 1.082-6.626 9.051-1.478-1.082 1.365-2.134c0.159-0.262 0.201-0.511 0.127-0.746-0.069-0.231-0.187-0.408-0.353-0.529v0l-18.303-13.398c-0.166-0.121-0.367-0.178-0.603-0.171-0.236 0.008-0.452 0.129-0.649 0.364v0l-1.622 1.946-1.51-1.105 6.626-9.051 1.51 1.105-1.406 2.19c-0.156 0.247-0.205 0.487-0.145 0.721 0.06 0.233 0.173 0.41 0.339 0.531v0l18.303 13.398c0.166 0.121 0.372 0.177 0.617 0.168 0.251-0.006 0.473-0.118 0.667-0.338v0z" fill="#000000" data-fill-palette-color="primary"></path><path d="M258.16 176.358v0c1.899 0.79 3.556 1.834 4.971 3.134 1.406 1.303 2.51 2.779 3.312 4.427 0.794 1.652 1.223 3.411 1.287 5.278 0.062 1.873-0.305 3.768-1.102 5.685v0c-1.067 2.567-2.604 4.562-4.611 5.984-2.015 1.426-4.288 2.242-6.817 2.448-2.529 0.206-5.111-0.238-7.745-1.333v0c-1.918-0.797-3.583-1.838-4.997-3.123-1.413-1.285-2.52-2.754-3.319-4.408-0.796-1.646-1.222-3.404-1.279-5.274-0.056-1.87 0.322-3.782 1.135-5.737v0c0.807-1.942 1.897-3.552 3.268-4.829 1.369-1.271 2.922-2.206 4.659-2.806 1.741-0.591 3.571-0.847 5.492-0.767 1.925 0.089 3.84 0.529 5.746 1.321zM256.306 180.923v0c-2.138-0.889-4.214-1.392-6.228-1.511-2.013-0.118-3.797 0.214-5.351 0.998-1.557 0.79-2.715 2.098-3.474 3.924v0c-0.787 1.893-0.91 3.675-0.368 5.344 0.545 1.678 1.567 3.181 3.063 4.507 1.503 1.329 3.296 2.426 5.379 3.293v0c2.102 0.874 4.163 1.378 6.183 1.513 2.02 0.136 3.818-0.188 5.394-0.969 1.573-0.776 2.745-2.092 3.517-3.949v0c0.784-1.887 0.9-3.668 0.345-5.343-0.557-1.669-1.588-3.172-3.094-4.509-1.506-1.338-3.295-2.437-5.366-3.298z" fill="#000000" data-fill-palette-color="primary"></path><path d="M4.459 143.668c0-6.02 4.88-10.9 10.9-10.901 6.02 0 10.9 4.88 10.901 10.901 0 6.02-4.88 10.9-10.901 10.9-6.02 0-10.9-4.88-10.9-10.9z" fill="#000000" data-fill-palette-color="primary"></path><path d="M255.28 143.668c0-6.02 4.88-10.9 10.901-10.901 6.02 0 10.9 4.88 10.9 10.901 0 6.02-4.88 10.9-10.9 10.9-6.02 0-10.9-4.88-10.901-10.9z" fill="#000000" data-fill-palette-color="primary"></path></g><g id="text-1"></g></svg></g></svg></g></svg></g><g></g></svg></g><defs></defs></svg><rect width="280" height="280" fill="none" stroke="none" visibility="hidden"></rect></g></svg></g></svg>