<svg xmlns="http://www.w3.org/2000/svg" version="1.1" xmlns:xlink="http://www.w3.org/1999/xlink" xmlns:svgjs="http://svgjs.dev/svgjs" width="2000" height="520" viewBox="0 0 2000 520"><g transform="matrix(1,0,0,1,-1.2121212121212466,-1.6568899937850006)"><svg viewBox="0 0 396 103" data-background-color="#ffffff" preserveAspectRatio="xMidYMid meet" height="520" width="2000" xmlns="http://www.w3.org/2000/svg" xmlns:xlink="http://www.w3.org/1999/xlink"><g id="tight-bounds" transform="matrix(1,0,0,1,0.2400000000000091,0.3281916718458717)"><svg viewBox="0 0 395.52 102.34361665630826" height="102.34361665630826" width="395.52"><g><svg viewBox="0 0 395.52 102.34361665630826" height="102.34361665630826" width="395.52"><g><svg viewBox="0 0 395.52 102.34361665630826" height="102.34361665630826" width="395.52"><g id="textblocktransform"><svg viewBox="0 0 395.52 102.34361665630826" height="102.34361665630826" width="395.52" id="textblock"><g><svg viewBox="0 0 395.52 102.34361665630826" height="102.34361665630826" width="395.52"><rect width="395.52" height="102.34361665630826" x="0" y="0" opacity="1" fill="#ffffff" data-fill-palette-color="tertiary"></rect><g transform="matrix(1,0,0,1,23.607599999999998,23.607599999999998)"><svg width="348.3048" viewBox="0.5 -37.6 241.33 38.2" height="55.12841665630827" data-palette-color="#000000"><path d="M16 0L11.25 0 11.25-30.8 0.5-30.8 0.5-35 26.75-35 26.75-30.8 16-30.8 16 0ZM37.95 0.6L37.95 0.6Q34.25 0.6 31.3-1.13 28.35-2.85 26.67-5.93 25-9 25-13L25-13Q25-17.2 26.7-20.25 28.4-23.3 31.35-24.95 34.3-26.6 37.95-26.6L37.95-26.6Q41.6-26.6 44.52-24.95 47.45-23.3 49.17-20.28 50.9-17.25 50.9-13.1L50.9-13.1Q50.9-8.95 49.2-5.88 47.5-2.8 44.57-1.1 41.65 0.6 37.95 0.6ZM37.95-3.4L37.95-3.4Q41.9-3.4 44.1-6.08 46.3-8.75 46.3-13L46.3-13Q46.3-15.6 45.2-17.78 44.1-19.95 42.22-21.28 40.35-22.6 37.95-22.6L37.95-22.6Q34-22.6 31.8-20 29.6-17.4 29.6-13.1L29.6-13.1Q29.6-10.5 30.7-8.28 31.8-6.05 33.67-4.73 35.55-3.4 37.95-3.4ZM61.4 0L56.9 0 56.9-37 61.4-37 61.4-21.85Q62.8-23.9 64.95-25.25 67.09-26.6 70-26.6L70-26.6Q74.4-26.6 76.57-23.95 78.75-21.3 78.75-16.95L78.75-16.95 78.75 0 74.25 0 74.25-16.45Q74.25-19.25 72.95-20.95 71.65-22.65 69.3-22.65L69.3-22.65Q67-22.65 64.92-21.03 62.85-19.4 61.4-17.2L61.4-17.2 61.4 0ZM91.49 0L86.99 0 86.99-21.15 82.99-21.15 82.99-25.05 86.99-25.05 86.99-28.1Q86.99-32.5 89.44-35.05 91.89-37.6 95.84-37.6L95.84-37.6Q97.89-37.6 99.44-37.13 100.99-36.65 102.39-35.95L102.39-35.95 101.04-32.15Q99.99-32.7 98.79-33.15 97.59-33.6 96.14-33.6L96.14-33.6Q94.04-33.6 92.77-32.27 91.49-30.95 91.49-28.4L91.49-28.4 91.49-25.05 99.19-25.05 99.19-21.15 91.49-21.15 91.49 0ZM113.09 0.6L113.09 0.6Q109.84 0.6 107.19-1.05 104.54-2.7 102.97-5.73 101.39-8.75 101.39-12.85L101.39-12.85Q101.39-16.75 102.97-19.85 104.54-22.95 107.32-24.78 110.09-26.6 113.69-26.6L113.69-26.6Q115.94-26.6 117.77-25.83 119.59-25.05 120.94-23.9L120.94-23.9 120.94-26 125.04-26 125.04-6.3Q125.04-4.4 125.97-3.83 126.89-3.25 127.99-3.25L127.99-3.25 127.04 0.25Q122.24 0.25 121.24-3.65L121.24-3.65Q120.09-2.05 118.12-0.73 116.14 0.6 113.09 0.6ZM114.09-3.4L114.09-3.4Q115.99-3.4 117.69-4.33 119.39-5.25 120.54-6.65L120.54-6.65 120.54-20.6Q119.19-21.55 117.57-22.13 115.94-22.7 114.14-22.7L114.14-22.7Q111.74-22.7 109.92-21.48 108.09-20.25 107.04-18.07 105.99-15.9 105.99-13L105.99-13Q105.99-10.2 107.04-8.03 108.09-5.85 109.94-4.63 111.79-3.4 114.09-3.4ZM139.24 0L134.49 0 134.49-35 155.24-35 155.24-30.9 139.24-30.9 139.24-20.2 152.59-20.2 152.59-16.3 139.24-16.3 139.24 0ZM169.19 0.6L169.19 0.6Q165.49 0.6 162.54-1.13 159.59-2.85 157.91-5.93 156.24-9 156.24-13L156.24-13Q156.24-17.2 157.94-20.25 159.64-23.3 162.59-24.95 165.54-26.6 169.19-26.6L169.19-26.6Q172.84-26.6 175.76-24.95 178.69-23.3 180.41-20.28 182.14-17.25 182.14-13.1L182.14-13.1Q182.14-8.95 180.44-5.88 178.74-2.8 175.81-1.1 172.89 0.6 169.19 0.6ZM169.19-3.4L169.19-3.4Q173.14-3.4 175.34-6.08 177.54-8.75 177.54-13L177.54-13Q177.54-15.6 176.44-17.78 175.34-19.95 173.46-21.28 171.59-22.6 169.19-22.6L169.19-22.6Q165.24-22.6 163.04-20 160.84-17.4 160.84-13.1L160.84-13.1Q160.84-10.5 161.94-8.28 163.04-6.05 164.91-4.73 166.79-3.4 169.19-3.4ZM196.03 0.6L196.03 0.6Q193.73 0.6 191.88-0.28 190.03-1.15 188.96-3.1 187.88-5.05 187.88-8.15L187.88-8.15 187.88-37 192.38-37 192.38-8.6Q192.38-5.9 193.51-4.6 194.63-3.3 196.63-3.3L196.63-3.3Q197.58-3.3 198.51-3.53 199.43-3.75 200.08-4.05L200.08-4.05 201.18-0.4Q200.28 0 198.96 0.3 197.63 0.6 196.03 0.6ZM209.93 0L205.43 0 205.43-26 209.93-26 209.93 0ZM207.68-30.45L207.68-30.45Q206.38-30.45 205.46-31.4 204.53-32.35 204.53-33.6L204.53-33.6Q204.53-35.05 205.38-35.9 206.23-36.75 207.68-36.75L207.68-36.75Q208.98-36.75 209.91-35.83 210.83-34.9 210.83-33.6L210.83-33.6Q210.83-32.2 209.98-31.33 209.13-30.45 207.68-30.45ZM228.88 0.6L228.88 0.6Q225.18 0.6 222.23-1.13 219.28-2.85 217.6-5.93 215.93-9 215.93-13L215.93-13Q215.93-17.2 217.63-20.25 219.33-23.3 222.28-24.95 225.23-26.6 228.88-26.6L228.88-26.6Q232.53-26.6 235.45-24.95 238.38-23.3 240.1-20.28 241.83-17.25 241.83-13.1L241.83-13.1Q241.83-8.95 240.13-5.88 238.43-2.8 235.5-1.1 232.58 0.6 228.88 0.6ZM228.88-3.4L228.88-3.4Q232.83-3.4 235.03-6.08 237.23-8.75 237.23-13L237.23-13Q237.23-15.6 236.13-17.78 235.03-19.95 233.15-21.28 231.28-22.6 228.88-22.6L228.88-22.6Q224.93-22.6 222.73-20 220.53-17.4 220.53-13.1L220.53-13.1Q220.53-10.5 221.63-8.28 222.73-6.05 224.6-4.73 226.48-3.4 228.88-3.4Z" opacity="1" transform="matrix(1,0,0,1,0,0)" fill="#000000" class="wordmark-text-0" data-fill-palette-color="quaternary" id="text-0"></path></svg></g></svg></g></svg></g></svg></g><g></g></svg></g><defs></defs></svg><rect width="395.52" height="102.34361665630826" fill="none" stroke="none" visibility="hidden"></rect></g></svg></g></svg>